<svg width="18" height="18" viewBox="0 0 18 18" xmlns="http://www.w3.org/2000/svg">
  <path d="M2 6 Q1 6 1 7.5 Q1 9 0 9 Q1 9 1 10.5 Q1 12 2 12" fill="none" stroke="#1D9E75" stroke-width="1.3" stroke-linecap="round" stroke-linejoin="round"/>
  <path d="M5 6 Q6 6 6 7.5 Q6 9 7 9 Q6 9 6 10.5 Q6 12 5 12" fill="none" stroke="#1D9E75" stroke-width="1.3" stroke-linecap="round" stroke-linejoin="round"/>
  <line x1="8" y1="9" x2="11" y2="9" stroke="#888" stroke-width="1.2" stroke-linecap="round"/>
  <polygon points="11,7 14,9 11,11" fill="#888"/>
  <ellipse cx="16" cy="6" rx="2.5" ry="1" fill="#7F77DD"/>
  <rect x="13.5" y="6" width="5" height="5" fill="#7F77DD"/>
  <ellipse cx="16" cy="11" rx="2.5" ry="1" fill="#534AB7"/>
  <rect x="3" y="1" width="3" height="7" rx="1" fill="#E24B4A"/>
  <rect x="8" y="1" width="3" height="7" rx="1" fill="#E24B4A"/>
</svg>