<svg width="18" height="18" viewBox="0 0 18 18" xmlns="http://www.w3.org/2000/svg">
  <ellipse cx="2.5" cy="6" rx="2.5" ry="1" fill="#7F77DD"/>
  <rect x="0" y="6" width="5" height="5" fill="#7F77DD"/>
  <ellipse cx="2.5" cy="11" rx="2.5" ry="1" fill="#534AB7"/>
  <line x1="6" y1="9" x2="9" y2="9" stroke="#888" stroke-width="1.2" stroke-linecap="round"/>
  <polygon points="9,7 12,9 9,11" fill="#888"/>
  <path d="M13 6 Q12 6 12 7.5 Q12 9 11 9 Q12 9 12 10.5 Q12 12 13 12" fill="none" stroke="#1D9E75" stroke-width="1.3" stroke-linecap="round" stroke-linejoin="round"/>
  <path d="M16 6 Q17 6 17 7.5 Q17 9 18 9 Q17 9 17 10.5 Q17 12 16 12" fill="none" stroke="#1D9E75" stroke-width="1.3" stroke-linecap="round" stroke-linejoin="round"/>
  <rect x="3" y="1" width="3" height="7" rx="1" fill="#E24B4A"/>
  <rect x="8" y="1" width="3" height="7" rx="1" fill="#E24B4A"/>
</svg>